<?xml version="1.0" standalone="no"?>
<!DOCTYPE svg PUBLIC "-//W3C//DTD SVG 20010904//EN"
 "http://www.w3.org/TR/2001/REC-SVG-20010904/DTD/svg10.dtd">
<svg version="1.0" xmlns="http://www.w3.org/2000/svg"
 width="512.000000pt" height="512.000000pt" viewBox="0 0 512.000000 512.000000"
 preserveAspectRatio="xMidYMid meet">
<metadata>
Created by potrace 1.14, written by Peter Selinger 2001-2017
</metadata>
<g transform="translate(0.000000,512.000000) scale(0.100000,-0.100000)"
fill="#000000" stroke="none">
<path d="M3663 4948 c-13 -6 -23 -16 -24 -22 0 -6 -2 -18 -4 -26 -1 -8 -10
-56 -19 -106 -26 -153 -39 -171 -171 -239 -206 -107 -345 -254 -456 -480 l-58
-120 -76 -24 c-90 -28 -172 -79 -242 -152 -29 -30 -224 -263 -433 -519 -209
-256 -418 -510 -464 -565 -45 -55 -132 -161 -193 -235 -61 -74 -178 -216 -259
-316 -82 -99 -165 -200 -184 -224 -19 -24 -39 -48 -45 -54 -5 -6 -39 -47 -75
-91 -36 -44 -73 -89 -82 -100 -193 -230 -218 -269 -199 -318 20 -53 44 -61
167 -62 63 0 114 -1 114 -2 0 -2 -8 -11 -17 -21 -33 -34 -178 -188 -288 -307
-60 -65 -123 -132 -140 -150 -16 -17 -57 -61 -90 -96 -62 -67 -271 -291 -363
-389 -58 -61 -68 -84 -53 -121 7 -19 21 -29 51 -37 55 -14 170 -8 250 13 75
19 243 88 282 116 14 10 29 19 33 19 13 0 212 141 290 205 129 107 280 251
402 383 108 117 294 335 340 398 22 29 22 29 50 11 63 -40 203 -107 284 -135
165 -58 334 -85 522 -83 116 1 112 3 121 -59 3 -19 15 -84 26 -145 11 -60 23
-125 26 -144 3 -18 8 -43 10 -55 16 -85 20 -75 -72 -183 l-86 -103 -52 -1
c-28 0 -69 -1 -91 -1 -21 0 -49 -5 -61 -11 -29 -12 -47 -56 -38 -91 11 -44 46
-54 182 -54 138 1 128 -4 210 96 29 35 65 77 80 93 l28 30 87 -105 c99 -119
94 -117 260 -115 86 1 102 4 124 23 33 28 34 79 3 110 -21 21 -31 23 -165 25
l-60 1 -90 110 c-49 60 -91 117 -93 127 -5 30 -40 220 -63 346 -25 134 -26
131 50 142 116 17 383 121 523 202 31 18 59 33 61 33 8 0 16 -28 32 -118 22
-128 24 -139 40 -226 l15 -79 -57 -71 c-32 -39 -72 -87 -90 -106 l-32 -35 -88
1 c-48 0 -96 -3 -105 -8 -50 -25 -63 -77 -29 -119 18 -23 26 -24 150 -26 119
-1 133 0 158 20 15 12 34 30 41 39 8 10 30 38 50 61 20 23 48 56 60 72 l24 30
20 -25 c23 -29 100 -120 140 -165 l26 -30 132 -1 c121 -1 134 1 157 20 32 28
34 79 5 109 -19 19 -34 22 -122 23 l-99 1 -96 113 c-52 63 -95 121 -95 131 0
9 -9 61 -19 115 -11 55 -22 115 -25 134 -3 19 -14 80 -25 135 l-20 100 27 23
c15 13 56 49 92 79 118 100 227 210 310 313 19 24 40 49 47 55 25 25 150 224
180 285 77 159 100 222 132 360 28 118 33 159 36 285 2 101 0 134 -20 265 -9
65 -30 143 -64 240 -39 113 -32 166 34 255 32 43 105 165 105 176 0 5 12 12
28 16 25 7 371 9 524 2 75 -3 93 6 103 52 10 43 -46 148 -116 218 -31 32 -86
73 -125 93 -73 38 -242 88 -299 88 -31 0 -34 3 -50 53 -94 290 -365 511 -755
617 -85 23 -78 22 -107 8z"/>
</g>
</svg>
